<?xml version="1.0" encoding="UTF-8" standalone="no"?>
<!DOCTYPE svg PUBLIC "-//W3C//DTD SVG 1.1//EN"
 "http://www.w3.org/Graphics/SVG/1.1/DTD/svg11.dtd">
<!-- Generated by graphviz version 2.40.1 (20161225.0304)
 -->
<!-- Title: %3 Pages: 1 -->
<svg width="287pt" height="253pt"
 viewBox="0.00 0.00 286.60 253.00" xmlns="http://www.w3.org/2000/svg" xmlns:xlink="http://www.w3.org/1999/xlink">
<g id="graph0" class="graph" transform="scale(1 1) rotate(0) translate(4 249)">
<title>%3</title>
<polygon fill="#ffffff" stroke="transparent" points="-4,4 -4,-249 282.6,-249 282.6,4 -4,4"/>
<!-- ini -->
<g id="node1" class="node">
<title>ini</title>
<ellipse fill="#000000" stroke="#000000" cx="1.8" cy="-147" rx="1.8" ry="1.8"/>
</g>
<!-- A -->
<g id="node2" class="node">
<title>A</title>
<ellipse fill="none" stroke="#000000" cx="67.6" cy="-147" rx="27" ry="18"/>
<text text-anchor="middle" x="67.6" y="-142.8" font-family="Times,serif" font-size="14.00" fill="#000000">A</text>
</g>
<!-- ini&#45;&gt;A -->
<g id="edge1" class="edge">
<title>ini&#45;&gt;A</title>
<path fill="none" stroke="#000000" d="M3.6983,-147C7.9356,-147 18.702,-147 30.2151,-147"/>
<polygon fill="#000000" stroke="#000000" points="30.3795,-150.5001 40.3795,-147 30.3794,-143.5001 30.3795,-150.5001"/>
</g>
<!-- A&#45;&gt;A -->
<g id="edge5" class="edge">
<title>A&#45;&gt;A</title>
<path fill="none" stroke="#000000" d="M59.7448,-164.4099C58.2785,-174.0879 60.8969,-183 67.6,-183 71.7895,-183 74.3833,-179.5187 75.3816,-174.5449"/>
<polygon fill="#000000" stroke="#000000" points="78.8824,-174.4351 75.4552,-164.4099 71.8826,-174.3842 78.8824,-174.4351"/>
<text text-anchor="middle" x="67.6" y="-185.8" font-family="Times,serif" font-size="14.00" fill="#000000">1</text>
</g>
<!-- B -->
<g id="node3" class="node">
<title>B</title>
<ellipse fill="none" stroke="#000000" cx="164.6" cy="-165" rx="27" ry="18"/>
<text text-anchor="middle" x="164.6" y="-160.8" font-family="Times,serif" font-size="14.00" fill="#000000">B</text>
</g>
<!-- A&#45;&gt;B -->
<g id="edge2" class="edge">
<title>A&#45;&gt;B</title>
<path fill="none" stroke="#000000" d="M82.3712,-162.0729C90.5229,-169.3025 101.2738,-177.2023 112.6,-181 119.742,-183.3947 127.4806,-182.7447 134.751,-180.7145"/>
<polygon fill="#000000" stroke="#000000" points="136.0759,-183.957 144.275,-177.2469 133.681,-177.3794 136.0759,-183.957"/>
<text text-anchor="middle" x="116.1" y="-184.8" font-family="Times,serif" font-size="14.00" fill="#000000">1</text>
</g>
<!-- E -->
<g id="node5" class="node">
<title>E</title>
<ellipse fill="none" stroke="#000000" cx="164.6" cy="-110" rx="27" ry="18"/>
<text text-anchor="middle" x="164.6" y="-105.8" font-family="Times,serif" font-size="14.00" fill="#000000">E</text>
</g>
<!-- A&#45;&gt;E -->
<g id="edge3" class="edge">
<title>A&#45;&gt;E</title>
<path fill="none" stroke="#000000" d="M91.081,-138.0433C103.1446,-133.4417 118.0521,-127.7554 131.283,-122.7086"/>
<polygon fill="#000000" stroke="#000000" points="132.9031,-125.8366 140.999,-119.0024 130.4083,-119.2963 132.9031,-125.8366"/>
<text text-anchor="middle" x="116.1" y="-131.8" font-family="Times,serif" font-size="14.00" fill="#000000">0</text>
</g>
<!-- A&#45;&gt;E -->
<g id="edge4" class="edge">
<title>A&#45;&gt;E</title>
<path fill="none" stroke="#000000" d="M81.2664,-130.9784C89.4097,-122.7001 100.4999,-113.4255 112.6,-109 117.5092,-107.2045 122.8572,-106.2722 128.1945,-105.9045"/>
<polygon fill="#000000" stroke="#000000" points="128.3586,-109.4033 138.3272,-105.8148 128.2965,-102.4036 128.3586,-109.4033"/>
<text text-anchor="middle" x="116.1" y="-111.8" font-family="Times,serif" font-size="14.00" fill="#000000">1</text>
</g>
<!-- D -->
<g id="node7" class="node">
<title>D</title>
<ellipse fill="none" stroke="#000000" cx="164.6" cy="-55" rx="27" ry="18"/>
<text text-anchor="middle" x="164.6" y="-50.8" font-family="Times,serif" font-size="14.00" fill="#000000">D</text>
</g>
<!-- A&#45;&gt;D -->
<g id="edge6" class="edge">
<title>A&#45;&gt;D</title>
<path fill="none" stroke="#000000" d="M78.6118,-130.3975C87.06,-118.377 99.4694,-102.1704 112.6,-90 119.5006,-83.604 127.6715,-77.536 135.4675,-72.304"/>
<polygon fill="#000000" stroke="#000000" points="137.5207,-75.1445 144.0225,-66.7792 133.7231,-69.2641 137.5207,-75.1445"/>
<text text-anchor="middle" x="116.1" y="-92.8" font-family="Times,serif" font-size="14.00" fill="#000000">1</text>
</g>
<!-- B&#45;&gt;A -->
<g id="edge9" class="edge">
<title>B&#45;&gt;A</title>
<path fill="none" stroke="#000000" d="M138.3294,-160.125C127.7596,-158.1636 115.3923,-155.8687 103.9813,-153.7512"/>
<polygon fill="#000000" stroke="#000000" points="104.3204,-150.2544 93.8496,-151.8711 103.0431,-157.1369 104.3204,-150.2544"/>
<text text-anchor="middle" x="116.1" y="-158.8" font-family="Times,serif" font-size="14.00" fill="#000000">0</text>
</g>
<!-- B&#45;&gt;B -->
<g id="edge13" class="edge">
<title>B&#45;&gt;B</title>
<path fill="none" stroke="#000000" d="M156.0307,-182.4099C154.4311,-192.0879 157.2875,-201 164.6,-201 169.1703,-201 172,-197.5187 173.089,-192.5449"/>
<polygon fill="#000000" stroke="#000000" points="176.5899,-192.4374 173.1693,-182.4099 169.5901,-192.3818 176.5899,-192.4374"/>
<text text-anchor="middle" x="164.6" y="-203.8" font-family="Times,serif" font-size="14.00" fill="#000000">1</text>
</g>
<!-- C -->
<g id="node4" class="node">
<title>C</title>
<ellipse fill="none" stroke="#000000" cx="256.6" cy="-110" rx="18" ry="18"/>
<ellipse fill="none" stroke="#000000" cx="256.6" cy="-110" rx="22" ry="22"/>
<text text-anchor="middle" x="256.6" y="-105.8" font-family="Times,serif" font-size="14.00" fill="#000000">C</text>
</g>
<!-- C&#45;&gt;A -->
<g id="edge12" class="edge">
<title>C&#45;&gt;A</title>
<path fill="none" stroke="#000000" d="M251.4159,-131.4668C243.5873,-158.5777 225.8774,-204.0864 191.6,-224 170.8479,-236.0561 159.8657,-232.9577 137.6,-224 113.4015,-214.2647 94.2333,-191.0198 82.118,-172.5995"/>
<polygon fill="#000000" stroke="#000000" points="85.0211,-170.6409 76.7459,-164.0248 79.0891,-174.3573 85.0211,-170.6409"/>
<text text-anchor="middle" x="164.6" y="-233.8" font-family="Times,serif" font-size="14.00" fill="#000000">0</text>
</g>
<!-- E&#45;&gt;C -->
<g id="edge10" class="edge">
<title>E&#45;&gt;C</title>
<path fill="none" stroke="#000000" d="M191.7054,-110C201.8821,-110 213.552,-110 224.1642,-110"/>
<polygon fill="#000000" stroke="#000000" points="224.3294,-113.5001 234.3294,-110 224.3293,-106.5001 224.3294,-113.5001"/>
<text text-anchor="middle" x="213.1" y="-112.8" font-family="Times,serif" font-size="14.00" fill="#000000">0</text>
</g>
<!-- F -->
<g id="node6" class="node">
<title>F</title>
<ellipse fill="none" stroke="#000000" cx="67.6" cy="-18" rx="27" ry="18"/>
<text text-anchor="middle" x="67.6" y="-13.8" font-family="Times,serif" font-size="14.00" fill="#000000">F</text>
</g>
<!-- F&#45;&gt;F -->
<g id="edge7" class="edge">
<title>F&#45;&gt;F</title>
<path fill="none" stroke="#000000" d="M59.7448,-35.4099C58.2785,-45.0879 60.8969,-54 67.6,-54 71.7895,-54 74.3833,-50.5187 75.3816,-45.5449"/>
<polygon fill="#000000" stroke="#000000" points="78.8824,-45.4351 75.4552,-35.4099 71.8826,-45.3842 78.8824,-45.4351"/>
<text text-anchor="middle" x="67.6" y="-56.8" font-family="Times,serif" font-size="14.00" fill="#000000">1</text>
</g>
<!-- F&#45;&gt;D -->
<g id="edge11" class="edge">
<title>F&#45;&gt;D</title>
<path fill="none" stroke="#000000" d="M94.3938,-15.2268C102.6812,-15.2315 111.7031,-16.1444 119.6,-19 127.8031,-21.9664 135.6383,-27.0879 142.4047,-32.5525"/>
<polygon fill="#000000" stroke="#000000" points="140.525,-35.5593 150.3511,-39.5215 145.1405,-30.2965 140.525,-35.5593"/>
<text text-anchor="middle" x="116.1" y="-21.8" font-family="Times,serif" font-size="14.00" fill="#000000">0</text>
</g>
<!-- D&#45;&gt;C -->
<g id="edge8" class="edge">
<title>D&#45;&gt;C</title>
<path fill="none" stroke="#000000" d="M185.0178,-67.2063C197.8716,-74.8907 214.6331,-84.9111 228.7049,-93.3236"/>
<polygon fill="#000000" stroke="#000000" points="227.1165,-96.4518 237.4957,-98.5789 230.7084,-90.4435 227.1165,-96.4518"/>
<text text-anchor="middle" x="213.1" y="-88.8" font-family="Times,serif" font-size="14.00" fill="#000000">1</text>
</g>
</g>
</svg>
